<svg xmlns="http://www.w3.org/2000/svg" viewBox="0 0 501.33 501.33"><defs><style>.cls-1{fill:#fdfdfd;opacity:0.25;}.cls-2{fill:#bc2121;}.cls-3{fill:#d33c1d;}.cls-4{fill:#822415;}.cls-5{fill:#7d2121;}.cls-6{fill:none;}</style></defs><g id="Capa_2" data-name="Capa 2"><g id="Capa_7" data-name="Capa 7"><circle class="cls-1" cx="250.67" cy="250.67" r="250.67"/></g><g id="Capa_3" data-name="Capa 3"><circle class="cls-2" cx="250.67" cy="249.72" r="216.5"/></g><g id="Capa_5" data-name="Capa 5"><path class="cls-3" d="M169.09,49.12c34.76-13.73,70.17-15.6,70.17-15.6A216,216,0,0,1,351,57.84a129.3,129.3,0,0,1-33.64,5.6A131.09,131.09,0,0,1,261.2,52.59l39.11,15.47a124.72,124.72,0,0,0-29.92-2.13c-11.34.58-16.93,2.5-24.3-.92-9-4.18-13.88-13.19-14.52-12.71s7.36,8.27,5.35,12.77c-2.54,5.69-18.6.64-42.49,3.86a122.34,122.34,0,0,0-20.35,4.53l7,2.89c-2.14,2.32-5.69,2.48-8.85,2.48l-54.57,0c1.31,0,4.84-3.86,6-4.72,2-1.56,4-3.09,6.09-4.56A115.36,115.36,0,0,1,143,61.42,263.42,263.42,0,0,1,169.09,49.12Z"/><path class="cls-3" d="M55.8,155.28c0,2.23,5.6,4,10.94,5.31,26.52,6.52,47.42,1.93,71.2,0,43.53-3.53,51.71,5.48,65.39-5.41,4.3-3.42,9.35-7.11,8.55-9-1-2.24-9,1.29-17-2.88-4.9-2.53-8.35-7.16-7.55-8.44,1.56-2.5,17.58,10.65,31.26,5,5.08-2.1,4.51-4.6,10.52-7.67,9-4.62,16.07-.55,26.13-1.95,21.53-3,20.39-10.59,36.83-11.16,12.72-.44,18.34,3.94,35.26,1.56,1.41-.2,3.89-.48,9.9-1.64,27.79-5.36,46.52-12.44,47-11.25.55,1.4-25.6,11.73-24.89,13.78,0,0,.55,1.61,55.77-12.74h0s-8.6-9.82-14.17-15-6.94-5.51-46.05-2.55c-27.58,2.09-40.13-8.2-55.74-5.92-10,1.45-9,5.64-22.48,11.25-18.83,7.86-32.63,7.47-45.33,9-40.65,4.79-38.08,25.1-82.08,33.11-17.65,3.21-23,.84-57.85,6.46C58.36,150.45,55.78,153.76,55.8,155.28Z"/><path class="cls-3" d="M67.12,261.43c2-2.76,3.77-5.86,6.59-7.87,3.74-2.68,8.69-3,13.33-3.06a299.77,299.77,0,0,1,49.73,3.25c2.73.4,5.56.85,8.23.12,2.39-.65,4.4-2.18,6.51-3.45,5.79-3.47,12.51-5.11,19.1-6.7l48.09-11.59L192,252l86.2-19.4c6.65-1.5,13.46-3,20.25-2.26a111.71,111.71,0,0,1,11,2.26,70.59,70.59,0,0,0,53.1-10.08,242.52,242.52,0,0,1-56.48,40.59l36.49,18.73c14.59,7.49,29.49,15.08,45.75,17.75a80.27,80.27,0,0,0,44.38-5.43,183.71,183.71,0,0,0-68,34.66c26.77-14.37,61.16-.29,90.24-9.48-2.1,6.13-8.21,10.31-14.63,12s-13.19,1.27-19.82.85L379,329.58c-31.62-2-63.74-4.1-93.52-14.65-10.2-3.62-20.18-8.24-30.93-9.76-9.41-1.34-19.08-.25-28.42-2-10.25-1.92-19.46-7.13-29.08-11.06A121.67,121.67,0,0,0,126,285.93a19.71,19.71,0,0,0-7,2.58c-2,1.41-3.5,3.48-5.31,5.17-6.75,6.33-17.2,6.65-26.57,6.16C71.45,299,53,296.68,40.76,286.07c-7.56-6.58-1.31-8,5.72-10.48C54.72,272.68,61.9,268.47,67.12,261.43Z"/><path class="cls-4" d="M56,155.24a13.47,13.47,0,0,1-1.91,4.54c12.5,3.13,25.07,6.27,37.91,7.36,12.29,1,24.64.17,36.94-.7l17.23-1.21c3.8-.27,7.61-.53,11.43-.61,4.13-.08,8.25.06,12.38.21l13.53.48c2.74.09,5.2-1.57,7.83-2.37a74.88,74.88,0,0,0,10.39-3.76,13.52,13.52,0,0,0,5.1-3.75c.63-.83,1.1-1.78,1.69-2.65,1.45-2.13,3.7-4,3.89-6.55a15.47,15.47,0,0,0-1.28,1.6,7.89,7.89,0,0,1-1.77,1.42,84.82,84.82,0,0,1-11.12,6.61,42.7,42.7,0,0,1-17.61,3.95c-1.38,0-2.76,0-4.13-.1l-23.24-1c-25.55-1-50.91-.8-76.47-.62C69.72,158.19,62.48,158.05,56,155.24Z"/><path class="cls-4" d="M195.13,140.22c1.36.2,2.76.16,4.12.42a48.06,48.06,0,0,1,4.75,1.58,27.92,27.92,0,0,0,3.95.8,36.39,36.39,0,0,0,9.59.65,18.44,18.44,0,0,0,11.12-5.4,15.13,15.13,0,0,1,3-2.71c1.3-.76,2.9-.95,4.07-1.89,1.33-1.06,1.84-2.82,2.27-4.46a24.27,24.27,0,0,0-8.2,1.71c-4.38,1.76-8.15,4.88-12.63,6.4s-9.6,1.33-14.36.43-9.38-2.44-14.11-3.48c-.68-.15-2.45,0-1.67,1.07.22.3.72.51,1,.79s.74.85,1.17,1.23A11.45,11.45,0,0,0,195.13,140.22Z"/><path class="cls-4" d="M120.5,80.22c17.9-1.27,35.89,1.21,53.82.36,2.14-.1,4.55-.39,5.86-2.08a7.47,7.47,0,0,0,1.09-2.36,23,23,0,0,0-6.38.69c-8.37,1.55-16.95,1.22-25.45,1-5-.14-9.95-.25-14.93-.12-4.13.12-8.26.4-12.38.72-.94.07-4.47-.19-4.89.79C116.53,80.86,119.87,80.27,120.5,80.22Z"/><path class="cls-4" d="M190.05,72.92c2-.35,4-.77,6.06-1.11a125,125,0,0,1,25.06-1.19c5.12.17,10.64.37,14.9-2.47,1.47-1,2.82-2.66,2.28-4.33a1.06,1.06,0,0,0-.32-.5.91.91,0,0,0-.56-.13c-1.21,0-2.1,1.08-3.09,1.78-2.37,1.67-5.55,1.39-8.39,2-1.24.26-2.44.7-3.68.93a20.5,20.5,0,0,1-3.5.29c-6.63.11-13.29-.72-19.87.09-1.88.22-3.74.59-5.6,1L178.72,72c-1,.19-4.62.28-2.69,1.57,1.56,1,4.26.41,6,.29C184.7,73.7,187.38,73.37,190.05,72.92Z"/><path class="cls-4" d="M240.87,64.63a17.9,17.9,0,0,0,3.87,2.72c3.16,1.59,6.82,1.77,10.35,1.92l9.47.39a45.78,45.78,0,0,0,6.83,0c1.8-.19,3.58-.59,5.38-.73a66.09,66.09,0,0,1,7.7.23c2.59.11,5.18,0,7.76-.15l7.76-.39.11-.66-12.39-2.15a74.73,74.73,0,0,0-9.29-1.21,92.34,92.34,0,0,0-9.83.33q-5.18.33-10.36.39a38.66,38.66,0,0,1-4.81-.16,22,22,0,0,1-10.91-4.4c-2.58-2-2.92-2.76-7.87-6.4-2.18-1.6-3.32-2.29-3.51-2.09s.69,1.19,2.65,3.91c2.07,2.88,1.85,2.86,3,4.28A35.38,35.38,0,0,0,240.87,64.63Z"/><path class="cls-4" d="M336.73,66.08c6-.71,12.53-2.12,16.21-6.91a3.92,3.92,0,0,0-3.23-1.62A16.86,16.86,0,0,0,346,58a45.78,45.78,0,0,1-5.85.56c-8.93.46-17.87.75-26.81.74s-18-.31-27-1c-5-.4-9.92-1.13-14.89-1.57a102.17,102.17,0,0,0,24.59,8A126.51,126.51,0,0,0,322,67,137.3,137.3,0,0,0,336.73,66.08Z"/><path class="cls-4" d="M332.15,123.33c3.65-1.53,7.78-1.42,11.56-2.61,1.27-.39,2.49-.94,3.74-1.39,6.42-2.33,13.41-2.32,20.13-3.52a19.16,19.16,0,0,0,4.36-1.2,33.12,33.12,0,0,0,4.49-2.72,36.87,36.87,0,0,1,7.91-3.85,15.07,15.07,0,0,0-8.18.36c-2.78.92-5.24,2.64-8,3.54a29.7,29.7,0,0,1-6.77,1.08c-8.14.69-16.38,1.55-24.12,4.28a26.65,26.65,0,0,0-6.29,2.78C331.34,121.19,332.05,122.06,332.15,123.33Z"/><path class="cls-4" d="M359.76,123.61a62.92,62.92,0,0,0,11.58-1.68c1.58-.38,3.14-.82,4.74-1.15,5.16-1.06,10.53-.9,15.66-2.14,1.75-.43,3.47-1,5.18-1.62q8.4-3,16.67-6.32c.54-.22,1.15-.51,1.29-1.08a1.3,1.3,0,0,0-1.11-1.43,3.91,3.91,0,0,0-2,.32c-6.62,2.3-13.46,3.93-20.28,5.56L379.36,117l-2.32.56L366.73,120l-5.08,1.22C359.87,121.63,359,121.62,359.76,123.61Z"/><path class="cls-4" d="M39.92,288.34a12.06,12.06,0,0,0,2.94,1.93c5.5,2.87,11.16,5.58,17.24,7,1.51.34,3,.6,4.58.85,9.13,1.53,18.28,3.05,27.53,3.51,1.06.05,2.46-.16,2.62-1.18s-.86-1.52-1.74-1.83a34,34,0,0,0-5.68-1.22c-3.36-.55-6.7-1.21-10-1.87L69.7,294a134.23,134.23,0,0,1-17.43-4.25c-5.38-1.83-9.69-4.57-14.36-7.62C36.56,283.27,38.92,287.35,39.92,288.34Z"/><path class="cls-4" d="M363.87,329a123.43,123.43,0,0,1,38.38-24.33c2.26-.91,4.56-1.75,6.86-2.59L427,295.52a29.52,29.52,0,0,1,6-1.75,8.79,8.79,0,0,1-3.92,2.9l-10.2,4.93a32.83,32.83,0,0,0-4.4,2.4c-1.67,1.15-3.11,2.6-4.77,3.77-2.86,2-6.27,3.16-9.58,4.41a137.13,137.13,0,0,0-19.6,9.17,41.6,41.6,0,0,1-6.36,3.2c-2,.69-4.08,1-6,1.85-1.67.7-2.54,1.82-4.36,1.9-4.62.21-9.45-.82-14-1.58q-20-3.36-39.78-7.51a342.13,342.13,0,0,1-46.46-13.75c-3.6-1.31-7.1-2.94-10.88-3.62-1.28-.24-2.58-.36-3.87-.48l-13.21-1.23c-2-.18-4.3-1.46-6.18-2a87,87,0,0,0-9.13-2.27c-8-1.45-16.37-1.21-24.1-3.67-1.31-.41-3.19-.61-3.14-1.93a22.22,22.22,0,0,1-2.27,6.59c6,.54,11.44,3.72,17,6,16.61,6.63,35.49,5,52.9,9.34,7.31,1.81,14.31,4.64,21.53,6.74,6.18,1.81,12.51,3.08,18.83,4.3q27.76,5.38,55.75,9.66a454.75,454.75,0,0,0,54.18,4.87c10.62.34,21.51.31,31.51-3.15,3.55-1.22,7-2.92,9.51-5.64s3.87-6.59,2.78-10.07a26.65,26.65,0,0,1-14.5,8.73,48.63,48.63,0,0,1-9.72.88c-18.39.24-36.79-2.21-55.12-.85-3.35.24-6.69.61-10,.68"/><path class="cls-4" d="M329.92,254.88c1.08-1.09,2.08-2.26,3.16-3.36a98.23,98.23,0,0,1,8-6.82c5.31-4.33,10.25-9.07,15.19-13.8,1.07-1,2.14-2.05,3.1-3.17a23.64,23.64,0,0,0,3.61-5.57c.29.35,0,.85-.34,1.18-4.9,5.17-10.8,9.35-16.65,13.49l-18,12.74c-2,1.42-4,2.84-6.1,4.14-2.49,1.56-5.09,2.94-7.65,4.37-1.07.6-7.08,3.42-6.81,4.62.35,1.59,6.41.44,7.5.23a28.28,28.28,0,0,0,7.7-2.68A29.37,29.37,0,0,0,329.92,254.88Z"/><path class="cls-4" d="M196.43,249.6c.81-.44,1.76-.62,2.6-1s1.49-.95,2.27-1.37c1.11-.6,2.38-.89,3.5-1.47a20.6,20.6,0,0,0,3.09-2.19c2.11-1.6,4.51-2.84,6.62-4.45s4-3.73,4.49-6.28c.06-.32.06-.73-.25-.87s-.59.07-.83.27c-3,2.49-6,5.19-9.38,7.2-.62.36-1.26.7-1.88,1.07a46,46,0,0,0-4,2.76l-10.59,7.86c-.44.33-.76.85,0,.94.35.05,1-.38,1.35-.51A33.33,33.33,0,0,0,196.43,249.6Z"/><path class="cls-3" d="M169.47,450.07c34.76,13.73,70.17,15.6,70.17,15.6a216,216,0,0,0,111.77-24.32,128.88,128.88,0,0,0-33.64-5.6,131.09,131.09,0,0,0-56.19,10.85l39.11-15.47a124.72,124.72,0,0,1-29.92,2.13c-11.34-.58-16.93-2.5-24.3.92-9,4.18-13.88,13.19-14.52,12.71s7.36-8.27,5.35-12.78c-2.54-5.68-18.6-.63-42.49-3.85a123.37,123.37,0,0,1-20.35-4.53l7-2.89c-2.14-2.32-5.69-2.48-8.85-2.48l-54.57,0c1.31,0,4.84,3.86,5.95,4.72,2,1.56,4,3.09,6.09,4.56a116.37,116.37,0,0,0,13.35,8.09A262.88,262.88,0,0,0,169.47,450.07Z"/><path class="cls-4" d="M120.88,419c17.9,1.28,35.89-1.2,53.82-.35,2.14.1,4.55.38,5.86,2.08a7.47,7.47,0,0,1,1.09,2.36,23,23,0,0,1-6.38-.69c-8.37-1.55-17-1.22-25.45-1-5,.14-9.95.25-14.93.12-4.13-.12-8.26-.4-12.38-.72-.94-.08-4.47.19-4.89-.79C116.91,418.32,120.25,418.92,120.88,419Z"/><path class="cls-4" d="M190.43,426.27c2,.35,4,.77,6.06,1.11a125,125,0,0,0,25.07,1.19c5.11-.17,10.63-.37,14.9,2.47,1.46,1,2.81,2.66,2.27,4.33a1,1,0,0,1-.32.5.9.9,0,0,1-.56.13c-1.21,0-2.1-1.08-3.09-1.78-2.37-1.67-5.55-1.39-8.39-2-1.24-.25-2.44-.69-3.68-.92a20.5,20.5,0,0,0-3.5-.29c-6.63-.11-13.29.72-19.87-.09-1.88-.23-3.74-.59-5.6-.95l-14.61-2.83c-1-.19-4.63-.29-2.69-1.57,1.55-1,4.25-.41,6-.29A80.72,80.72,0,0,1,190.43,426.27Z"/><path class="cls-4" d="M241.25,434.56a18.14,18.14,0,0,1,3.87-2.72c3.16-1.59,6.82-1.77,10.35-1.92l9.47-.39a44.48,44.48,0,0,1,6.83.05c1.8.19,3.58.59,5.38.73a66,66,0,0,0,7.7-.23c2.59-.11,5.18,0,7.76.15l7.76.38.11.67-12.39,2.15a76.66,76.66,0,0,1-9.29,1.21,89.79,89.79,0,0,1-9.83-.34q-5.18-.32-10.36-.38a38.66,38.66,0,0,0-4.81.16,22,22,0,0,0-10.91,4.4c-2.58,2-2.92,2.76-7.87,6.4-2.18,1.6-3.32,2.29-3.51,2.09s.69-1.19,2.65-3.91c2.07-2.88,1.85-2.86,3-4.28A35.38,35.38,0,0,1,241.25,434.56Z"/><path class="cls-4" d="M337.11,433.11c6,.71,12.53,2.12,16.21,6.91a4,4,0,0,1-3.23,1.62,16.86,16.86,0,0,1-3.72-.48,45.78,45.78,0,0,0-5.85-.56c-8.93-.46-17.87-.75-26.81-.74s-18,.31-27,1c-5,.39-9.92,1.13-14.89,1.57a102.17,102.17,0,0,1,24.59-8,125.81,125.81,0,0,1,25.91-2.34A137.3,137.3,0,0,1,337.11,433.11Z"/></g><g id="Capa_6" data-name="Capa 6"><path class="cls-2" d="M231.83,150.3c-.72-20.06,23-35.84,36.19-41.34a67.54,67.54,0,0,1,24.89-4.89c4.36,0,13,0,21.48,3.71,14.09,6.11,27.62,22.15,27.11,39.32-.73,24.45-29.28,40.84-52.22,42C263.07,190.45,232.62,172.53,231.83,150.3Z"/><path class="cls-2" d="M93.79,298.35c-6.07-18.07,12-38.58,23-47A67.25,67.25,0,0,1,139,240.44c4.12-1.13,12.24-3.35,21.26-2.2,14.94,1.9,32,13,36.16,28.74,5.89,22.44-16.64,44.75-38,51.77C134.06,326.78,100.52,318.37,93.79,298.35Z"/><path class="cls-2" d="M319.93,304.87c-3.43-13.95,9.75-28,17.57-33.57a41.88,41.88,0,0,1,15.57-6.61c2.85-.56,8.48-1.66,14.6-.17,10.12,2.47,21.34,12,23.53,24,3.13,17.2-13.13,32.33-28,36.09C346.29,329,323.73,320.32,319.93,304.87Z"/></g><g id="Capa_4" data-name="Capa 4"><path class="cls-5" d="M174.31,242.53c-18.63-9.72-42.89-3-59.51,10.49C99.39,265.56,90.1,286.2,94.71,304.4a53.23,53.23,0,0,1,17-55.83A56.07,56.07,0,0,1,174.31,242.53Z"/><path class="cls-6" d="M181.87,236.67c-.48-.34-1-.66-1.45-1a5,5,0,0,0-.45-.29c-.63-.41-1.25-.8-1.89-1.18l-1-.56-1-.54"/><path class="cls-6" d="M94.76,295.43a51.9,51.9,0,0,0,3.47,8.7c0,.09.09.18.14.27.21.42.42.83.65,1.23"/><path class="cls-6" d="M186.22,207.4a4.76,4.76,0,0,0-.47-.31c-.66-.45-1.33-.87-2-1.25-.34-.21-.68-.41-1-.59s-.69-.38-1-.57"/><path class="cls-6" d="M94.76,295.43a36.68,36.68,0,0,0,3.47,8.7c0,.09.09.18.14.27"/><path class="cls-5" d="M329,117.69c-14.77-15.75-40.47-16.86-61.05-8.64-19.09,7.61-35,25.32-36.58,45.06a57.52,57.52,0,0,1,35-50.53A55.52,55.52,0,0,1,329,117.69Z"/><path class="cls-6" d="M338.23,114.24c-.35-.5-.71-1-1.06-1.45a5.12,5.12,0,0,0-.34-.44q-.7-.91-1.44-1.8c-.25-.29-.5-.59-.75-.87s-.51-.57-.77-.86"/><path class="cls-6" d="M234.38,145.13a56.08,56.08,0,0,0,.45,9.83c0,.11,0,.21,0,.32.06.49.13,1,.21,1.45"/><path class="cls-6" d="M337.17,112.79a5.12,5.12,0,0,0-.34-.44q-.69-.94-1.44-1.8-.36-.45-.75-.87c-.25-.29-.51-.57-.77-.86"/><path class="cls-6" d="M234.38,145.13a38.79,38.79,0,0,0,.45,9.83c0,.11,0,.21,0,.32"/><path class="cls-5" d="M387.31,278.68c-8.77-11-25.76-13.35-40-9.39-13.17,3.67-24.87,14-27.23,26.54a37.43,37.43,0,0,1,26.57-30.14A37.82,37.82,0,0,1,387.31,278.68Z"/><path class="cls-6" d="M393.69,277.06c-.2-.34-.4-.67-.61-1a2,2,0,0,0-.2-.3c-.27-.42-.55-.84-.83-1.24l-.45-.61c-.14-.2-.29-.39-.45-.59"/><path class="cls-6" d="M322.71,290.28a35.79,35.79,0,0,0-.35,6.32c0,.07,0,.14,0,.21,0,.32,0,.63.05.94"/><path class="cls-6" d="M393.08,276.06a2,2,0,0,0-.2-.3c-.26-.43-.54-.85-.83-1.24-.14-.21-.29-.41-.45-.61s-.29-.39-.45-.59"/><path class="cls-6" d="M322.71,290.28a24.62,24.62,0,0,0-.35,6.32c0,.07,0,.14,0,.21"/><path class="cls-5" d="M171.83,389.16c-3.19-4.16-9.37-5-14.54-3.54-4.79,1.38-9,5.28-9.91,10a14,14,0,0,1,9.67-11.37A13.46,13.46,0,0,1,171.83,389.16Z"/><path class="cls-6" d="M171.55,357.15l-.23-.37a.75.75,0,0,0-.07-.12l-.3-.47a1.88,1.88,0,0,1-.16-.23l-.17-.22"/><path class="cls-6" d="M145.72,362.14a13.47,13.47,0,0,0-.12,2.38v.08c0,.12,0,.24,0,.36"/><path class="cls-6" d="M171.32,356.78a.75.75,0,0,0-.07-.12c-.09-.16-.2-.32-.3-.47l-.16-.23-.17-.22"/><path class="cls-6" d="M145.72,362.14a9.42,9.42,0,0,0-.12,2.38v.08"/></g><g id="Capa_8" data-name="Capa 8"><path class="cls-1" d="M234.41,148.52c12.94-.69,26.25-1.45,38.54,2.65,10.77,3.58,20,10.67,30.44,15.15,32.13,13.84,68.79,1.28,103.75.25,1.56,3.65-3.5,6.45-7.42,7.14-51.17,9-104.52-1.87-155.31,9.08-11.27,2.43-22.3,5.92-33.63,8.05-18.25,3.44-37,3.32-55.54,3.19l-44.74-.32a4,4,0,0,0,6.54.39q-50.35-3.21-100.54-8.33c-2.61-3.14,3-6.52,7.07-6.79l61.17-4.08c-11.51-12.19-30.26-13.11-47-13.21a18.21,18.21,0,0,1,.17-4.73c5.49-1,9.52-4.77,14.68-6,7.51-1.82,17.42.18,25.14.32q26.49.5,53,.34Q182.59,151.28,234.41,148.52Z"/><path class="cls-1" d="M303.73,257.31c-3.73,1.15-7.68,2.49-10.1,5.56-1.52,1.93-2.3,4.39-4,6.19-2.33,2.52-5.94,3.33-9.33,3.81-16.72,2.4-33.71.25-50.6.32a193,193,0,0,0-61,10.17,4.85,4.85,0,0,0-2.38,1.36c-2.13,2.69,2.39,5.63,5.78,6.1a934.29,934.29,0,0,0,207.4,5.53c10.23-.87,20.49-1.92,30.43-4.49,15.44-4,31-11.74,46.57-8.14L395.6,258.54c21.85,2.6,44.32,5.15,65.6-.47,1.95-.51,4-1.19,5.24-2.8,1.7-2.24,3.56-13.52,1.67-15.8-2.69-3.27-16.94-1.68-21-1.78a452.63,452.63,0,0,0-143.38,19.62Z"/><path class="cls-1" d="M307.25,404.86l-41.78.87-132.89,2.79A44,44,0,0,0,150,428.94c13.19,8.1,29.53,8.61,45,8.47,34.69-.33,69.6-2.79,103.91,2.29a78.61,78.61,0,0,0-49,14.92c20.28,3.16,41,.73,61.18-3.15,19.06-3.68,39.21-9.49,51.48-24.54,3.75-4.6,11.26-11.48,12.49-16.83C354.5,402.27,328.85,404.41,307.25,404.86Z"/><path class="cls-1" d="M293.75,66.81c-1.17,4,2,7.81,5.08,10.53,19.8,17.33,48.73,23.56,73.9,15.9a47.07,47.07,0,0,1-12,9.46,85.74,85.74,0,0,0,28.75,6.19c4.2.16,8.65,0,12.23-2.25,5.62-3.46,7.52-11.13,5.87-17.51C401.92,67.33,379.51,72.84,362,72Q327.79,70.46,293.75,66.81Z"/></g></g></svg>