<svg xmlns="http://www.w3.org/2000/svg" viewBox="0 0 445.39 218.59">
    <defs>
        <style>
            .cls-1{fill:#faf3ee;}.cls-2{fill:#ebc5ac;}.cls-3{fill:#c1a08f;}.cls-4{fill:#fff;opacity:0.4;}.cls-5{fill:#ad9f9e;opacity:0.65;}.cls-6,.cls-7{fill:#c8b6b5;}.cls-6{opacity:0.83;}.cls-7{opacity:0.61;}
        </style>
    </defs>
    <g id="Capa_2" data-name="Capa 2">
        <g id="Capa_2-2" data-name="Capa 2">
            <path class="cls-1"
                  d="M333,109.3a111.45,111.45,0,0,1-1.29,17,109.8,109.8,0,0,1-2.58,12.11c-12.56,46.25-54.39,80.22-104.06,80.22s-91.5-34-104.06-80.22a109.8,109.8,0,0,1-2.58-12.11,111.77,111.77,0,0,1,0-33.93A106.89,106.89,0,0,1,121,80.23C133.57,34,175.4,0,225.07,0s91.5,34,104.06,80.23a106.89,106.89,0,0,1,2.57,12.1A110.41,110.41,0,0,1,333,109.3Z"/>
        </g>
        <g id="Capa_7" data-name="Capa 7">
            <path class="cls-2"
                  d="M158.11,23.57S173,12.84,180.53,9.71,195.66,4.11,196,4s2-.61,4.47-1.16c3.94-.88,7.72,2.1,11.64,3.06,5.26,1.29,8.09,1.22,9,1.14a19.79,19.79,0,0,0,4.58-1,16,16,0,0,0,5.31.2,6.1,6.1,0,0,1,2-.17,19.2,19.2,0,0,1,3.7,1.25,43.93,43.93,0,0,0,7.48,1.54,88,88,0,0,1,12.43,3.44l12.26,4.05a16,16,0,0,1,5.15,2.4c2.32,1.85,3.44,4.78,4.45,7.57a2.26,2.26,0,0,1,.09,1.91,2,2,0,0,1-1.62.74c-4.57.45-9.48-1.78-13.61.23-1.89.91-3.28,2.58-5.05,3.7-3,1.92-6.89,2-10.46,1.55s-7.1-1.4-10.7-1.34c-5.34.08-10.4,2.36-15.7,3.14-8.73,1.29-17.46-1.55-26.17-3a83.48,83.48,0,0,0-17.51-1,43.16,43.16,0,0,1-7.71,0C164.83,31.54,160.71,28.05,158.11,23.57Z"/>
            <path class="cls-2"
                  d="M117.14,109.5s.72,18.32,2.92,26.2,4.92,15.36,5,15.69.77,2,1.85,4.23c1.74,3.65,6.41,4.79,9.59,7.28,4.25,3.35,5.95,5.62,6.42,6.36a19.48,19.48,0,0,1,2.05,4.21,16,16,0,0,1,3.43,4.06c.55.94.86,1.31,1.08,1.64,2.59,3.77,10.81,3.22,12.56,3.07a35.4,35.4,0,0,0,10-2.32c10.34-4.37,26.09-.87,47.4,1.18,3.43.33,45.69,4.26,47.12-2.07.48-2.13-4.06-3.61-3.56-5.93,1.34-6.23,36.7-8.29,45.78-8.81,2.66-.16,8.69-.46,12-4.57l.15-.2a21.88,21.88,0,0,0,3.21-7c1.26-4.36,1.76-3.28,3.11-7.89.75-2.54,1.69-6.57,2.23-8.17.07-.21.29-.84.51-1.71.13-.56.1-.54.24-1.07s.18-.85.28-1.27a1,1,0,0,0,0-.7.66.66,0,0,0-.19-.27c-.24-.21-.56-.17-1-.17s-.66,0-1,0-33.09-.7-64.85-7.61c-15.12-3.29-27.63-9-28.08-7.92-.3.76,5.47,3.51,5.2,4.14-.64,1.46-32.1-12-33.12-10-.42.86,4.49,4.46,17.92,12.38a8,8,0,0,1-3.47,2.29c-3.2,1-6.11-.67-6.22-.45-.31.65,25.79,9.84,25.11,14.67-1.3,9.13-97.38-4.56-104.87-19.17a26.46,26.46,0,0,0-4.74-6.07C127.55,109.87,122.27,108.78,117.14,109.5Z"/>
            <path class="cls-2"
                  d="M329.37,81.11c-.84-2.43-2.11-6.18-3.6-10.82-2.25-7-2.51-8.17-3.86-9.3-3.13-2.59-7.36-.82-16.59.85-10.88,2-22.28,2.62-22.66,1.11s8.59-4.18,8.22-5.55c-.33-1.22-8-1.26-14.91.47A23.78,23.78,0,0,1,267,59a19.86,19.86,0,0,1-4.58-1,16.27,16.27,0,0,1-5.31.2,6.1,6.1,0,0,0-2-.17c-1.3.18-3.44.49-3.7,1.24-.77,2.18,13.4,8.61,13,9.65-.5,1.24-20.37-7.63-32.89-4.67a88.94,88.94,0,0,0-12.26,4c-2.81,1.19-4.79,2.23-5.15,2.41-11.74,5.92-57.27-6.36-57.47-5.79-.12.33,14.54,4.59,14.22,7.56-.4,3.75-24.47,3.87-24.45,4.44s28.2.7,55.34,1.56c11.08.35,22.92.86,23.06,2.67.16,2-14.58,4.07-14.4,5.55s15.76,1.35,29.91-.29c4.6-.53,5.33-.79,10.69-1.35,4.59-.47,22-2.28,22.29-.58.39,2-22.37,7.9-22.22,8.44s24.68-6,41.81-7.71c8.49-.87,12.74-1.3,17.51-1a43.57,43.57,0,0,0,7.71,0A36,36,0,0,0,329.37,81.11Z"/>
            <path class="cls-3"
                  d="M282.55,62.9c.3.2.34.63.55.94a1.91,1.91,0,0,0,1.67.56h6.46c.73,0,1.45,0,2.18,0s1.71-.14,2.56-.24A76,76,0,0,0,308.79,62c4.44-1.29,9.18-1.06,13.78-.6-.34.07-.63-.26-.75-.59a2.13,2.13,0,0,0-.44-.92,1.41,1.41,0,0,0-.84-.25,25,25,0,0,0-7.76.73c-1.24.32-2.45.73-3.71,1-1.06.18-2.15.22-3.23.31-4.73.4-9.38,1.79-14.13,1.63C288.69,63.12,285.57,63.05,282.55,62.9Z"/>
            <path class="cls-3"
                  d="M196.12,3.89c-.05.5,2.37,1.26,10.74,3.12l10.55,2.35a22.39,22.39,0,0,0,3.89.64,31.24,31.24,0,0,0,4.92-.36C238,8.41,249.65,12.16,260.41,17c1.18.53,4.47.5,8.61,1.68a51.4,51.4,0,0,1,7.14,2.64c-.17-.24-.41-.61-.72-1A21,21,0,0,0,273.53,18a7.44,7.44,0,0,0-3.24-1.58L248,9.07c-8.53-2.8-9.72-3.56-13.67-3.84-1.51-.11-5.08-.25-8.88-.28-2.17,0-4,0-5.25,0-3-.41-5.29-.56-6.84-.63l-2-.1a21.76,21.76,0,0,1-4.69-.45c-.88-.24-.78-.32-2-.66a11.67,11.67,0,0,0-2.85-.55,13,13,0,0,0-3.39.56C196.92,3.52,196.14,3.7,196.12,3.89Z"/>
        </g>
        <g id="Capa_8" data-name="Capa 8">
            <path class="cls-3"
                  d="M240.93,138.07a2,2,0,0,1,.13.62,1.79,1.79,0,0,1-.07.63,10.07,10.07,0,0,1-3.9,3.47,10.47,10.47,0,0,1-3.77.94,61.09,61.09,0,0,1-16.65-.33,51.94,51.94,0,0,0-6.46-.87c-1.29,0-2.58.05-3.87.11-5.37.24-11,.31-16.15-1.08-7.9-2.13-15.93-3.73-24-5.33l-6.73-1.34a46.79,46.79,0,0,1-5.23-1.25,46.27,46.27,0,0,1-6-2.65l-5.95-3a18.5,18.5,0,0,1-4.23-2.6c-2.51-2.25-2.5-3.65-4.67-6.53a20.16,20.16,0,0,0-8.68-6.59,17.85,17.85,0,0,0-7.54-1c0-.3,0-.61,0-.92s0-.6,0-.9a18.27,18.27,0,0,1,9.82,1.13,19.24,19.24,0,0,1,8.73,7.43,19.37,19.37,0,0,0,2.59,4,14.5,14.5,0,0,0,4.93,3.17c7.66,3.44,15.82,5.58,23.94,7.7,5.38,1.41,9.19,2.09,15.22,3.37,8,1.72,10.49,2.13,11.84,2.35,5.22.85,9.95,1.37,13,1.71,1.66.18,3.67.4,6.35.63,5.18.46,9.11.48,17,.52a14.79,14.79,0,0,0,7.91-1.61A12.36,12.36,0,0,0,240.93,138.07Z"/>
            <path class="cls-3"
                  d="M218.63,125.1a3.45,3.45,0,0,0,.54.11,4.61,4.61,0,0,0,.83,0c.68,0,1.36-.12,2-.21a2.54,2.54,0,0,0,.48-.09,4.8,4.8,0,0,0,.7-.39c.19-.1.38-.18.55-.29a9,9,0,0,0,.88-.87c.27-.23.47-.25.63-.5a1.29,1.29,0,0,0,.17-.42,1.42,1.42,0,0,0,0-.27,14.79,14.79,0,0,1-3,2.14,3.87,3.87,0,0,1-.62.22,8.15,8.15,0,0,1-.91.12c-.55.07-.57.11-.91.15a4.55,4.55,0,0,1-1.21-.07,14.62,14.62,0,0,1-2.51-.58c-.06,0-.51-.18-.54-.11s0,0,0,0,0,.06.12.13l.1.07.08,0a3.54,3.54,0,0,1,.55.18c.42.15.84.29,1.27.41Z"/>
            <path class="cls-3"
                  d="M207.49,110a19.13,19.13,0,0,0,2.71,1c.42.17.81.4,1.23.57a9.82,9.82,0,0,0,1.23.4c1.1.32,2.19.69,3.27,1.06l1.92.64,2.32.78a14.15,14.15,0,0,1,1.77.7c.37.19.73.41,1.09.62a14,14,0,0,0,3.27,1.36c2.74.74,5.58,1,8.36,1.63a3.9,3.9,0,0,1,.69.19c.33.13.62.35.94.51a7.21,7.21,0,0,0,2.14.62l1.41.25c.18,0,.41.11.59,0a.67.67,0,0,0,.23-.55,6.48,6.48,0,0,1-2.81-.4c-1.31-.49-2.67-.86-4-1.38-7.65-3.08-9.75-3.79-12.59-4.9a26.75,26.75,0,0,0-3.44-1.26l-1.24-.28c-2.47-.56-4.84-1.56-7.33-2a3.53,3.53,0,0,0-1.68,0,.5.5,0,0,0-.26.16C207.26,109.82,207.4,110,207.49,110Z"/>
            <path class="cls-3"
                  d="M235.43,115.75q3.13,1.23,6.38,2.15a7.27,7.27,0,0,1,1,.33c.34.14.65.31,1,.47,1.81.85,4,.86,5.68,1.9a8.75,8.75,0,0,0,2.72.66c3.52.77,6.81,2.58,10.4,2.88s7.24,1.6,10.91,2.12c4.1.59,8.19,1,12.26,1.76,4.38.76,8.8,1.07,13.2,1.62,3.76.46,7.52.81,11.27,1.23,4.27.49,8.57.53,12.85.84,1.77.13,3.56.21,5.32.39a3.47,3.47,0,0,0,.72,0,2.3,2.3,0,0,1,.26,0,1.63,1.63,0,0,1,.3.07,3.74,3.74,0,0,0,.88.07l.14-.48a.64.64,0,0,0,0-.09c0-.12,0-.14,0-.17s-.12-.07-.16-.08c-.31,0-.23-.1-.52-.12a15.07,15.07,0,0,0-2.67-.08c-.51.06-1.61-.25-3.84-.31-9.19-.2-19.85-1.88-45.52-5.64,0,0-23.14-3.4-33.16-7l-2.94-1a25.08,25.08,0,0,0-2.46-.84c-2.28-.81-3.48-1.36-4-.86A.48.48,0,0,0,235.43,115.75Z"/>
            <path class="cls-3"
                  d="M161.65,75a36.14,36.14,0,0,1-6,.84,18.58,18.58,0,0,0-2.58.22c-.4.08-.8.18-1.2.24s-.66.06-1,.08a27.76,27.76,0,0,0-4.44.63,4.93,4.93,0,0,0,1.9-.16,30.3,30.3,0,0,1,4.47-.24,85.26,85.26,0,0,0,12.15-1,21.45,21.45,0,0,0,4-.91,3.94,3.94,0,0,0,1.4-.78,1.62,1.62,0,0,0,.52-1.46,9,9,0,0,1-2.67,1.28c-.34.11-.67.23-1,.32s-.94.19-1.42.27c-.87.14-1.74.32-2.6.49C162.62,74.86,162.11,74.89,161.65,75Z"/>
            <path class="cls-3"
                  d="M156.66,65a36.92,36.92,0,0,0,7.42,2.22c3.67.93,7.22,2.27,10.84,3.37a84.27,84.27,0,0,0,24.69,3.6,94.31,94.31,0,0,0,12.11-.87,14.45,14.45,0,0,0,2.69-.56,20.22,20.22,0,0,0,2.84-1.4c5.15-2.77,10.95-4.09,16.66-5.37,7.3-1.64,15-.66,22.24,1.31,2.59.7,5.13,1.6,7.77,2,.22,0,.53,0,.52-.23-4.11-.36-7.95-2.15-11.95-3.17-1.53-.38-3.09-.66-4.65-.94-2.53-.45-5.06-.9-7.61-1.18a25.19,25.19,0,0,0-3.78-.18,33.39,33.39,0,0,0-7,1.29l-5.94,1.53c-6.32,1.64-12.26,4.89-18.78,5.13-1,0-2,0-3,0A100.58,100.58,0,0,1,188,70.24c-6-1-11.91-2.62-17.86-3.7C165.66,65.73,161.2,65.44,156.66,65Z"/>
            <path class="cls-3"
                  d="M254,58.79a15.11,15.11,0,0,1,2.69,0c3.63.2,7.26.4,10.86.86a17.76,17.76,0,0,0,3.78.25,13.46,13.46,0,0,0,3.24-.68c1.83-.62,6.15-1.27,16.35-1.61a1.29,1.29,0,0,0-.2-.48c-.33-.46-.95-.58-2.79-.62-1,0-1.56,0-2.51,0-1.25.08-2.18.2-2.4.23-2.65.36-3.68.29-5.9.56-4.78.58-4.57,1.5-7.55,1.46a49,49,0,0,1-5.87-.9c-1.4-.2-.66,0-7.9.09-1.85,0-3.87,0-4.27,1a.92.92,0,0,0-.06.5,6.44,6.44,0,0,1,1.38-.53A9.19,9.19,0,0,1,254,58.79Z"/>
        </g>
        <g id="Capa_9" data-name="Capa 9">
            <path class="cls-4"
                  d="M158.38,51.26a22.71,22.71,0,0,1,5.58-.89,26,26,0,0,1,6.29,1.3c12,3.31,24.57,2.58,36.92,1.75s24.91-1.72,37,1.28,23.76,10.54,29.1,22.5a4.79,4.79,0,0,1,.55,3.08,4.24,4.24,0,0,1-2.54,2.5c-4,1.93-8.46,2.51-12.83,3.07l-30.35,3.84a27.54,27.54,0,0,1-8.64.18c-2.74-.53-5.27-1.87-7.84-3A57,57,0,0,0,191.39,82c-4-.2-8.38.13-11.63,2.73-2.4,1.92-3.9,4.85-5.95,7.2-3,3.48-7.18,5.58-11.21,7.59-3.65,1.82-7.46,3.68-11.48,3.62-4.34-.06-8.34-2.35-12.15-4.57-5-2.91-10-5.85-14.22-9.87a40.48,40.48,0,0,1-9.91-15c-3.44-9,1.76-17.36,10.12-17.84A186.06,186.06,0,0,0,158.38,51.26Z"/>
            <path class="cls-4"
                  d="M310.08,130.22c-10.27.69-20.67,0-30.79,1.89-6.13,1.15-12.13,3.25-18.37,3.41-8,.2-15.6-2.76-23.33-4.64s-16.46-2.53-23.13,1.8c-1.92,1.25-3.58,2.85-5.44,4.17-7.47,5.26-17.33,5.42-26.43,4.62s-18.45-2.34-27.23.21A207.49,207.49,0,0,0,196.88,153a30.27,30.27,0,0,0,8.16.53c3.52-.4,6.92-1.94,10.46-1.73,3.95.23,7.41,2.59,11.12,3.94,10.81,3.92,22.8-.86,34.24.27,5.69.57,11.14,2.59,16.77,3.56s11.89.74,16.45-2.71c2.05-1.55,3.64-3.67,5.77-5.11,3.12-2.11,7-2.55,10.58-3.82,4.37-1.57,8.16-4.39,11.88-7.18l7.1-5.32a18.42,18.42,0,0,0,4-3.72c2.72-3.72,1.34-7.75,2-11.6C340.63,124,313.27,130,310.08,130.22Z"/>
            <path class="cls-4"
                  d="M267.83,23c-3.88.11-7.74-.6-11.61-.89a53.28,53.28,0,0,0-21.15,2.72c2.9,4.41,8.57,6.07,13.83,6.45s10.66-.17,15.73,1.27c2.89.82,5.58,2.25,8.49,3s6.28.61,8.54-1.36a12,12,0,0,0,2.48-3.44C285.6,28.06,293,17.35,286,17.56c-2.54.07-6.42,2.89-9,3.7A34,34,0,0,1,267.83,23Z"/>
        </g>
        <g id="Capa_6" data-name="Capa 6">
            <path class="cls-5"
                  d="M333.1,121.66c.21,5.17-1.36,10.26-1.64,15.55,38.72,14.42,62.77,28.16,61.26,36.76s-28.26,10.15-68.7,5.59c-29.68-3.32-66.72-9.95-106.59-19.5S141.28,139.56,112.88,129c-38.71-14.42-62.77-28.16-61.26-36.74s28.26-10.17,68.72-5.61q2.3-7.49,5.2-14.49A426.07,426.07,0,0,0,78,64.86s-67.44-6.4-76.35,9.35c0,0-1.62.07-1.62,8.48H0A12,12,0,0,0,1.2,85.9c17.51,31.42,111.58,58.8,111.58,58.8,92.73,27,93.31,27.22,102.19,29.35,37.18,8.91,72.52,15.62,103.84,20,0,0,116.53,16.23,124.73-5.77a36.21,36.21,0,0,0,1.23-4.22h0s.32-1.76.56-3.53c1.86-13.89-44.49-34.68-44.49-34.68A465.71,465.71,0,0,0,333.1,121.66Z"/>
        </g>
        <g id="Capa_5" data-name="Capa 5">
            <path class="cls-6"
                  d="M333.21,121.13c.28,4.81-1.22,9.52-1.42,14.43,38.82,13.95,63,27.07,61.62,35s-28,9-68.43,4.22c-29.63-3.52-66.67-10.21-106.55-19.66S142.2,135,113.73,124.76c-38.8-14-63-27.06-61.6-35s28-9,68.43-4.22a137.29,137.29,0,0,1,5-13.39C53.66,61.7,3.18,62.94.64,77.55s43.54,38.72,113.22,61.83c30.32,10.06,65.11,19.93,102.31,28.74S288.71,183.68,320,188.21c71.88,10.43,122.36,9.19,124.9-5.42S402.89,144.24,333.21,121.13Z"/>
            <path class="cls-7"
                  d="M333.21,121.13c.28,4.81-1.22,9.52-1.42,14.43,38.82,13.95,63,27.07,61.62,35s-28,9-68.43,4.22c-29.63-3.52-66.67-10.21-106.55-19.66S142.2,135,113.73,124.76c-38.8-14-63-27.06-61.6-35s28-9,68.43-4.22a137.29,137.29,0,0,1,5-13.39C53.66,61.7,3.18,62.94.64,77.55s43.54,38.72,113.22,61.83c30.32,10.06,65.11,19.93,102.31,28.74S288.71,183.68,320,188.21c71.88,10.43,122.36,9.19,124.9-5.42S402.89,144.24,333.21,121.13Z"/>
        </g>
    </g>
</svg>