<svg xmlns="http://www.w3.org/2000/svg" viewBox="0 0 478.89 478.89"><defs><style>.cls-1{fill:#e5ddd5;}.cls-2{fill:#fff;stroke:#ddd;stroke-miterlimit:10;opacity:0.26;}.cls-3{fill:#6e6964;}.cls-4{fill:#fad3a5;}.cls-5{fill:#c0a485;}.cls-6{fill:#ccc0b1;}.cls-7{fill:#d76a70;}.cls-8{fill:#b25761;}.cls-9{fill:#dcd0c2;}.cls-10{fill:#47433f;}</style></defs><g id="Capa_2" data-name="Capa 2"><circle class="cls-1" cx="239.44" cy="239.44" r="203"/></g><g id="Capa_4" data-name="Capa 4"><circle class="cls-2" cx="239.44" cy="239.44" r="238.94"/></g><g id="Capa_13" data-name="Capa 13"><path class="cls-3" d="M321.7,416.27a14,14,0,0,1,.72-2.85,14.84,14.84,0,0,1,2.32-3.58c3.23-4.11,6.42-8.42,7.93-13.44a7.23,7.23,0,0,1,3.52,11.3,23,23,0,0,1-2,2.07,20.31,20.31,0,0,0-4.59,7.07,12,12,0,0,1-1.2,2.65c-1.11,1.59-4.09,4.16-6.23,3.35C319.71,421.9,321.36,418.12,321.7,416.27Z" transform="translate(0.5 0.88)"/><path class="cls-3" d="M239,435a21.08,21.08,0,0,1,6.24-3.39c4.86-1.93,10.19-3.68,15.22-2.27,1.55.44,3,1.16,4.5,1.75,4.82,1.88,10.36,2.29,15.16.33,2.44-1,4.61-2.56,7-3.74s5.08-2,7.64-1.32,4.57,2.78,6.32,4.83a.83.83,0,0,1,.23.38c.07.37-.73.66-1.08.79-8.73,3.17-13,3.75-13,3.75-4,.82-7.4,1.44-10,1.89-10.41,1.81-17.47,2.55-19,2.66-.25,0-1.16.08-2.4.21-.91.1-1.22.16-2,.24-1.18.13-2,.18-2.78.22,0,0-10.32.34-13.55.34h0c-1.31-.11-1.84-.13-2.11-.56C234.52,439.89,237,436.81,239,435Z" transform="translate(0.5 0.88)"/><path class="cls-3" d="M393.32,362.63a13.31,13.31,0,0,0-4.28,2.13c-2.93,1.93-6,4.19-7.11,7.51a30.77,30.77,0,0,0-.77,3.15,13.93,13.93,0,0,1-5.65,8.48c-1.5,1-3.19,1.56-4.76,2.41a7.41,7.41,0,0,0-3.66,3.7c-.63,1.7-.23,3.59.22,5.34a.72.72,0,0,0,.13.28c.17.18.64-.15.85-.29a48.42,48.42,0,0,0,7.08-5.74c2-1.89,3.65-3.53,4.9-4.78,5-5.05,8.13-8.65,8.79-9.47.11-.14.49-.62,1.05-1.25.4-.46.55-.61.9-1,.52-.59.88-1,1.19-1.44h0a12.08,12.08,0,0,1,1.21-1.37c.14-.13.53-.6,1.31-1.54,1.12-1.36,2.18-2.66,2.86-3.5.27-.38.66-.89,1.16-1.47s.7-.71.67-.86C399.31,362.26,396.19,361.86,393.32,362.63Z" transform="translate(0.5 0.88)"/></g><g id="Capa_12" data-name="Capa 12"><path class="cls-4" d="M87.46,375l14.17,13.12c44.43-10.38,91.8-23.34,141.44-39.6a1689.53,1689.53,0,0,0,196.41-78.24c.76-4.17,1.42-8.65,1.94-13.4.56-5.19.89-10.1,1-14.7a1228,1228,0,0,1-207.61,92.8A1226.19,1226.19,0,0,1,87.46,375Z" transform="translate(0.5 0.88)"/><path class="cls-5" d="M134,376.92a3.07,3.07,0,0,0,.27-.77c.26-1.4-1.15-2.52-1.66-3.85a1.77,1.77,0,0,1-.07-1.2,2.18,2.18,0,0,1,.41-.64l1.26-1.59a7.9,7.9,0,0,0,1.58,3.61,3.48,3.48,0,0,0,1.35,1.39c.2.1.44.16.56.35a.85.85,0,0,1,.11.44,4.47,4.47,0,0,1-.37,2.76,4.6,4.6,0,0,1-.75.84,10.78,10.78,0,0,1-2.66,2C130.76,381.83,133.43,378.27,134,376.92Z" transform="translate(0.5 0.88)"/><path class="cls-5" d="M161.39,372.05a47.31,47.31,0,0,0,16.41-8.71c1.06-.87,2.08-1.78,3.09-2.69l5.56-5a51.54,51.54,0,0,1-7.73,9.57,14.49,14.49,0,0,1-2,1.69,17.91,17.91,0,0,1-2.53,1.33l-5.43,2.47a37.88,37.88,0,0,1-4.38,1.78c-4.37,1.37-8.94,1.64-13.29,3.15.66-1.26,3.13-1.64,4.38-2C157.45,373.08,159.44,372.63,161.39,372.05Z" transform="translate(0.5 0.88)"/><path class="cls-5" d="M197.27,357.84c.13-.58.24-1.16.34-1.74l.71-3.84c0-.15.1-.33.25-.33s.2.22.2.38l0,3.76c0,.58,0,1.16,0,1.74a18.1,18.1,0,0,1-.52,3.35c-.22.87-1.92,2.73-2.19,1.17C195.77,361.21,197,359,197.27,357.84Z" transform="translate(0.5 0.88)"/><path class="cls-5" d="M206.91,353.32a4.05,4.05,0,0,1-1.4,1.14l4-2.76a8.7,8.7,0,0,0,4-5l1.12-2.69a3.88,3.88,0,0,0,.36-1.29,1.27,1.27,0,0,0-.55-1.15A12.67,12.67,0,0,0,212,343c-.63.8-.67,2.57-1,3.56A20.67,20.67,0,0,1,206.91,353.32Z" transform="translate(0.5 0.88)"/><path class="cls-5" d="M380.92,278.28a27.7,27.7,0,0,1-2.4,3.11,26.6,26.6,0,0,1-2.34,2.16c-9.79,8.35-19.72,16.78-31.27,22.45,5-1.19,10.08-2.4,14.68-4.72,1.72-.87,3.37-1.89,5-2.9l9.09-5.63a30.15,30.15,0,0,0,7.43-5.76,37.32,37.32,0,0,0,3.39-5.19q1.62-2.73,3.45-5.32c.59-.83,1.2-1.65,1.82-2.46a67.57,67.57,0,0,1,8.4-9,49.16,49.16,0,0,1-9.74,5.74c-1.79.8-3,1-4.15,2.66S382,276.65,380.92,278.28Z" transform="translate(0.5 0.88)"/></g><g id="Capa_8" data-name="Capa 8"><path class="cls-3" d="M295.32,42.61s-6.57,9.94-5,18.8S279.87,71,279.87,71s-9.69,5.9,0,6.64,12.91-4.43,11.3,4.43-5.42,22.88,4.15,17,3.38-24.36,17-21.41,76.53,28.79,76.53,28.79c2,1,4.33,2,4.87,1.46.36-.38-.2-1.36-1.1-2.69a46.88,46.88,0,0,0-5.65-6.89s-3.74-3.6-8.88-8.12h0a203.72,203.72,0,0,0-32-25.46,182.43,182.43,0,0,0-22-12.19,151.8,151.8,0,0,0-19.9-7.62C300.56,43.87,297.54,43.12,295.32,42.61Z" transform="translate(0.5 0.88)"/></g><g id="Capa_7" data-name="Capa 7"><path class="cls-6" d="M295.32,41.42s-6.57,9.68-5,18.3-10.49,9.33-10.49,9.33-9.69,5.75,0,6.46,12.91-4.3,11.3,4.31-5.42,22.26,4.15,16.52,3.38-23.7,17-20.83,76.53,28,76.53,28c2,1,4.33,2,4.87,1.42.36-.37-.2-1.32-1.1-2.62a46.31,46.31,0,0,0-5.65-6.7s-3.74-3.5-8.88-7.9h0A203.21,203.21,0,0,0,346,63,183.35,183.35,0,0,0,324,51.1a154.31,154.31,0,0,0-19.9-7.42C300.56,42.65,297.54,41.92,295.32,41.42Z" transform="translate(0.5 0.88)"/></g><g id="Capa_5" data-name="Capa 5"><path class="cls-7" d="M39.42,179.4s103.7,3.33,136.89-9.7,120-43.81,150.51-69.93c10.13-8.66,21-16.84,29.11-27.41a2.6,2.6,0,0,1,.82-.71c2.41-1.29,6.51,1.95,8.5,3.56a287.53,287.53,0,0,1,28.61,26.67c.95,1,1,1.06,1.11,1.3,5.31,14.6-138.38,93.72-271.11,116.44C25.19,236.51,34,230.29,34,230.29a166.1,166.1,0,0,1,5.41-50.89Z" transform="translate(0.5 0.88)"/><path class="cls-7" d="M61.64,247.18" transform="translate(0.5 0.88)"/><path class="cls-8" d="M174.68,201a26.21,26.21,0,0,1,3.79-2.33c4.34-2.54,7.66-6.56,12-9.11,3.68-2.16,7.95-3.17,11.64-5.31a22,22,0,0,0,10.5-15.11c-1.77,4.55-.29,9.89-2.06,14.44-1.27,3.24-4,5.66-7,7.46s-6.21,3.1-9.19,4.89a8.27,8.27,0,0,0-2,1.58,22.9,22.9,0,0,0-1.35,2,11.49,11.49,0,0,1-6.35,4.17c-1.62.47-3.48.85-4.4,2.27a5.75,5.75,0,0,1-.73,1.13,3,3,0,0,1-1.21.58c-1.69.5-5.77,2.4-6.37-.23C171.4,205.16,173,202.34,174.68,201Z" transform="translate(0.5 0.88)"/><path class="cls-8" d="M46.53,227.76a16.71,16.71,0,0,1-3.29-1.38,16.42,16.42,0,0,1-4-3.73,10,10,0,0,1-1.52-2.19c-1.37-3,.34-6.74-1-9.75a3,3,0,0,1-.36-1.09c0-.66.56-1.18,1.08-1.6,1-.84,2.23-1.72,3.56-1.62a4.34,4.34,0,0,1,2.88,1.9,10.16,10.16,0,0,1,2,5.63,2.33,2.33,0,0,1-.85,2.24,1.78,1.78,0,0,1-2.27-.92,5.12,5.12,0,0,1-.35-2.67,2.52,2.52,0,0,1,1.52,1.86,4.14,4.14,0,0,1,.17-1.59,1.3,1.3,0,0,0-.47-1.43,1.25,1.25,0,0,0-.61-.11,3.41,3.41,0,0,0-3.21,2.14,4,4,0,0,0-.17,1.53,5.17,5.17,0,0,0,2.82,4.3,4.12,4.12,0,0,0,4.88-1.09,6.17,6.17,0,0,0,1-3.55c.14-3.89-1-8.1-4.18-10.38a5.33,5.33,0,0,0-2-.94,5.25,5.25,0,0,0-3.55.76,8.37,8.37,0,0,0-4.08,6.63c-.17,2.72,1,5.34,1.34,8.06a52,52,0,0,0,.45,5.45,17.1,17.1,0,0,0,1.25,3.3A3.13,3.13,0,0,0,38.61,229a4.11,4.11,0,0,1,.73.43c.19.17.29.43.51.57a1.26,1.26,0,0,0,.69.16,71,71,0,0,0,7.58,0c.6-.06,1.85-.14,1.51-1.14C49.42,228.39,47.1,228,46.53,227.76Z" transform="translate(0.5 0.88)"/><path class="cls-8" d="M316.82,125.56c5.42-7.29,10.9-14.64,17.7-20.66l-3.65,6.27a22.92,22.92,0,0,0-1.78,3.49c-.37,1-.6,2-.94,3.07a29.35,29.35,0,0,1-2.42,5c-6.32,11.13-12.84,22.52-22.64,30.76-2,1.69-4.17,3.28-5.62,5.46s-2.13,5-3.65,7.22c-1.22,1.78-8.74,7.46-8.95,2.48-.07-1.59,4.09-5.62,5.07-6.94l5.51-7.4Z" transform="translate(0.5 0.88)"/></g><g id="Capa_6" data-name="Capa 6"><path class="cls-8" d="M177,178.7a11,11,0,0,0-3.66,2.59,29.64,29.64,0,0,1-2.67,2.92,12.7,12.7,0,0,1-5.3,2.11,15,15,0,0,1-3.81.54c-2.61-.06-5.39-1.4-7.7-.18a1.85,1.85,0,0,0-1.13,1.74c1.5.14,2.78,1.51,4.17,2.09a10,10,0,0,0,7.11-.12,29.61,29.61,0,0,0,6.33-3.54c2.08-1.4,4.3-3,5-5.42A4.41,4.41,0,0,1,177,178.7Z" transform="translate(0.5 0.88)"/><path class="cls-8" d="M34,230.29a640.58,640.58,0,0,0,69.78-7.3l3.4-.56,3-.49a2.58,2.58,0,0,0,.8-.14c.14-.12.08-.35.07-.55a7.34,7.34,0,0,0-.18-1.33,5.88,5.88,0,0,0-1.78-3.19c-.38-.33-.81-.6-1.16-.95a1.8,1.8,0,0,1-.58-1.34c.07-.66.65-1.13,1.11-1.61a5.54,5.54,0,0,0,1.44-4.6c.44,1.67,1.78,2.92,2.88,4.25a1.5,1.5,0,0,1,.33.55,1.82,1.82,0,0,1-.16,1,4.87,4.87,0,0,0,.66,4.22,2.42,2.42,0,0,0,.7.69,2.83,2.83,0,0,0,2.07.11,4.81,4.81,0,0,1,2.08-.25c-.08-1.33-.1-2.86.87-3.78a5.56,5.56,0,0,1,1.46-.84,7.14,7.14,0,0,0,2.51-1.83c1.54-1.89,1.48-4.71,3-6.6a4.63,4.63,0,0,0-1.25,4.64c.16.54.43,1,.6,1.58a7.24,7.24,0,0,1-.33,4.54,2.85,2.85,0,0,1-.9,1.41,9.61,9.61,0,0,1-1.52.6c-.81.39-1.34,1.21-2.13,1.64a4.29,4.29,0,0,1-1.54.41,20.73,20.73,0,0,0-3.79.4c-.73.22-1.4.6-2.12.84a3.75,3.75,0,0,1-1.45.24c-.35,0-1-.17-.36-.36,1.08-.3,2.25-.39,3.35-.58l6.6-1.19q6.44-1.2,12.85-2.5,6.16-1.26,12.33-2.62,5.9-1.31,11.77-2.7,5.61-1.32,11.19-2.74,5.28-1.33,10.55-2.75,4.95-1.32,9.89-2.72c3.06-.86,6.12-1.75,9.17-2.65q4.23-1.24,8.44-2.54l7.65-2.4q3.42-1.09,6.83-2.22c2-.66,4-1.32,6-2l5.07-1.74.57-.19c33.4-11.61,55.82-22,87.76-36.78,0,0,14.9-6.89,38.7-20.73,6.31-3.67,10.13-6.08,13.45-8.24,3.76-2.43,1.18-.88,14.78-11.24a14.09,14.09,0,0,0,4.32-4.56c1.59-2.89,1.27-5.28,2.22-5.44s2.82,2.28,2.89,4.78c.1,3.74-3.74,6.62-5.55,8-7,5.29-12.85,12.25-20.6,16.35-33.62,17.84-29,20.67-66.07,36.53-27.18,11.63-50,18.35-94.63,31.32-38.34,11.15-57.51,16.72-81.15,21.57a659.5,659.5,0,0,1-94.59,12.41Z" transform="translate(0.5 0.88)"/></g><g id="Capa_9" data-name="Capa 9"><path class="cls-9" d="M110.36,79.73c9.42-4.56,17.56-5.15,22.06-5.61,34.29-3.52,67.18-21,71.51-23.34,17.92-9.69,22.63-16.72,36.78-17.92,7.73-.65,18.64.41,25.79,1.11,10.24,1,15.36,1.49,15.92,3,2.46,6.51-36.51,29.85-77.6,47.67-59.39,25.75-125.37,40.91-129.49,31C73.89,112.14,80,105.81,90,95.51,94.56,90.8,100.81,84.34,110.36,79.73Z" transform="translate(0.5 0.88)"/><path class="cls-3" d="M75.15,114.94c-.91,1.47-1.8,3.41-1.07,4.83,1.43,2.74,8.09,1.83,13,1.19,27.15-3.56,17.88-1.19,28.72-3.36a277.62,277.62,0,0,0,34-8.52c4.13-1.35,12.82-4.86,30-11.83,0,0,18.08-7.31,41.84-17.56,2.84-1.22,8.56-3.68,15.79-7.36,3.61-1.84,6.56-3.44,8.52-4.52,5.57-3.16,10.24-6,13.85-8.3,12.73-8,17.41-12.17,21.33-17.11,1.1-1.38,1.93-2.56,2.45-3.33l-1.31-2.3A41.29,41.29,0,0,1,279.64,41c-4,5.52-8.77,9.07-23.25,17.57-5.72,3.37-8.59,5-11.31,6.5a203.11,203.11,0,0,1-23.44,10.6c-38.42,14.66-57.95,28.39-93.93,35.52A216,216,0,0,1,75.15,114.94Z" transform="translate(0.5 0.88)"/><path class="cls-3" d="M75,114.83a31.5,31.5,0,0,1,5.25-5.45c-.25.47.38,1,.9,1a4.15,4.15,0,0,1,1.57,0,2.46,2.46,0,0,1,.75.62A3.52,3.52,0,0,0,86.9,112a4.75,4.75,0,0,0,1.36-.82,50.67,50.67,0,0,0,7.6-7.26c0,1.9.14,4.13,1.73,5.16s3.66.46,4.87,1.72a5.8,5.8,0,0,0,.93,1,2.62,2.62,0,0,0,1.21.31l2.35.2a3,3,0,0,0,1.74-.19,4.15,4.15,0,0,0,1.14-1.25c2-2.62,5.75-3,8.47-4.91,1.62-1.11,2.91-2.77,4.77-3.42a1.65,1.65,0,0,1,.93-.09c.9.26.92,1.57,1.59,2.22a2.82,2.82,0,0,0,1.66.57,83.48,83.48,0,0,0,14.83.28c3.71-.26,6.64-3.3,9-6.15a4.78,4.78,0,0,1,1.41-1.32,5,5,0,0,1,1.59-.35,14.5,14.5,0,0,0,9.06-4.89c.43,1,1.62,1.32,2.68,1.47A22.68,22.68,0,0,0,185,87.87a5.47,5.47,0,0,1,1.3-1.1,8.62,8.62,0,0,1,2.64-.54c2.33-.43,4.2-2.32,6.54-2.73,1.24-.21,2.53,0,3.78-.2,3-.5,5.08-3.29,7.88-4.5,2.59-1.11,5.57-.79,8.29-1.54a20.92,20.92,0,0,0,6.41-3.06c1.93-1.37,3.73-2.94,5.73-4.21a23.54,23.54,0,0,1,4.79-2.32c3.33-1.16,7.12-1.67,9.6-4.18.35-.36.66-.74,1-1.12a.73.73,0,0,1,.35-.28,1,1,0,0,1,.6.2,2.89,2.89,0,0,0,2.4-.13,8,8,0,0,1,2.34-.79,13.41,13.41,0,0,1,1.55.08,4.32,4.32,0,0,0,1.93-.43c.76.37-.06,1.33-.79,1.76-7.34,4.35-14.71,8.72-22.62,11.91-3.44,1.39-7,2.56-10.28,4.24-2.71,1.39-5.24,3.12-7.95,4.51C205.46,86,200,87.38,194.63,89a174.11,174.11,0,0,0-30.74,12.66c-13.18,7-29,7.43-43.38,11.39-4.34,1.2-8.65,2.64-13.12,3.22a66.94,66.94,0,0,1-9.81.33q-10-.15-20-.42C76.45,116.16,75,116,75,114.83Z" transform="translate(0.5 0.88)"/><path class="cls-3" d="M269.39,48.45a4.28,4.28,0,0,1,0-1.13,7.58,7.58,0,0,1,.23-.91,6.57,6.57,0,0,0-.5-4.54,7.64,7.64,0,0,1-.46-1,3.85,3.85,0,0,1-.11-1.35l1.33.07a2.39,2.39,0,0,0,1.33-.17,4.32,4.32,0,0,1,.53-.34,1.43,1.43,0,0,1,.54-.09c.72,0,1.44.09,2.15,0a2,2,0,0,0,1.66-1.19,2.67,2.67,0,0,0-.57-2.08,32.24,32.24,0,0,0,5,.52,2.3,2.3,0,0,1,1.73.51.38.38,0,0,1,.11.24.37.37,0,0,1-.1.22c-.24.28-.51,1.56-.94,2.34-.28.5-.35.29-1.3,1.3A21.51,21.51,0,0,0,278.24,43a17.87,17.87,0,0,1-1.19,1.59,12.76,12.76,0,0,1-1.24,1.2,34.94,34.94,0,0,1-3.19,2.52,18.21,18.21,0,0,0-3,2.45C269.47,50,269.46,49.22,269.39,48.45Z" transform="translate(0.5 0.88)"/><path class="cls-3" d="M141.64,143.29s-2.45-9.11,6.22-10.67,8.67,4.22,13.78,2.67,12.44-1.33,4.44,3.11-6.1,6.67-10.61,4-6.94-5.11-10.28-1.56S141.64,143.29,141.64,143.29Z" transform="translate(0.5 0.88)"/><path class="cls-3" d="M77.69,161.15c-.24-2.06,1.31-4,3.21-4.84a11.61,11.61,0,0,1,6.14-.48,34.49,34.49,0,0,1,3.49.63c3.06.72,6.07,1.84,9.22,1.89a27.49,27.49,0,0,0,5.34-.61c2.35-.43,4.7-.85,7-1.47a24.24,24.24,0,0,1,4-.92,34.55,34.55,0,0,1,4.66.13,21.55,21.55,0,0,0,6.82-.86c2.68-.79,5.64-2.09,8.12-.79a1.85,1.85,0,0,1,1,1.13,1.54,1.54,0,0,1-.89,1.6,3.78,3.78,0,0,1-1.92.26c-2.26-.16-4.61-.88-6.74-.1a23.56,23.56,0,0,0-2.24,1.14c-3.1,1.53-6.75,1.13-10.22,1.22a34.46,34.46,0,0,0-12.65,2.79,17.38,17.38,0,0,1-2.68,1c-2.64.62-5.54-.39-8.08.56-1,.39-1.9,1.06-2.88,1.51C84.78,166.68,78.27,166.3,77.69,161.15Z" transform="translate(0.5 0.88)"/><path class="cls-3" d="M78,135.83c2.11.09,4.24.62,6.29.16.67-.14,1.3-.39,2-.53a13.32,13.32,0,0,1,3.09-.21l8.13.08a20.83,20.83,0,0,0,3.35-.15c.94-.15,1.86-.42,2.79-.65a29.48,29.48,0,0,1,13.28-.19c-6.36,1.51-12.77,3-19.3,3.15-1.4,0-2.81,0-4.2.12-2.53.23-5,1-7.5,1.32-3.58.47-7.25.07-10.8.76-1.36.26-2.69.69-4.06,1a39.29,39.29,0,0,1-8,.55c-.48,0,.64-3,1.09-3.32,1-.66,2.88-.43,4-.63C71.38,136.71,74.61,135.71,78,135.83Z" transform="translate(0.5 0.88)"/><path class="cls-3" d="M232.62,96.59a3.11,3.11,0,0,1-.4-3.11,4.72,4.72,0,0,1,1.15-1.33,4.14,4.14,0,0,1,2.68-1.35,4.31,4.31,0,0,1,2.52,1.35,12.94,12.94,0,0,1,2.68,2.9,11.85,11.85,0,0,1,1.27,5.58,5.6,5.6,0,0,1-.31,2.55,5.4,5.4,0,0,1-2.48,2.26,33.61,33.61,0,0,1-3.31,1.6,2.6,2.6,0,0,1-1.33.28,1.86,1.86,0,0,1-1.43-1.43,5.5,5.5,0,0,1,0-2.14,1.88,1.88,0,0,1,.21-.77,3.25,3.25,0,0,1,.66-.62A2.78,2.78,0,0,0,235,99C234.48,97.93,233.31,97.55,232.62,96.59Z" transform="translate(0.5 0.88)"/><path class="cls-3" d="M255.42,110a3.74,3.74,0,0,0,1.29,0,1.14,1.14,0,0,1,1.14.43.92.92,0,0,1-.38,1.15,2.19,2.19,0,0,1-1.29.25.66.66,0,0,1-.37-.1.59.59,0,0,1-.19-.46,2.57,2.57,0,0,1,.46-1.68" transform="translate(0.5 0.88)"/><path class="cls-10" d="M82.13,167.55c2.59.86,5.29-.74,8-1.18a17.17,17.17,0,0,0,2.78-.47c1.15-.38,2.13-1.21,3.33-1.42,1-.19,2.07.09,3.07-.17a6.32,6.32,0,0,0,1.43-.64c6.6-3.51,14.43-3.51,21.9-3.86a4.33,4.33,0,0,0,1.56-.26c1.06-.43,1.66-1.56,2.6-2.21a5.22,5.22,0,0,1,3.75-.59c1.28.2,2.52.62,3.82.73a2.64,2.64,0,0,0,2-.43,1.18,1.18,0,0,0,.08-1.79,14.66,14.66,0,0,1-5.23.5,13.14,13.14,0,0,0-3.13-.13,13.77,13.77,0,0,0-3.67,1.52,14.31,14.31,0,0,1-6,1.35c-1.24,0-2.47-.16-3.7-.19a35.76,35.76,0,0,0-7.63.91,18.62,18.62,0,0,0-3.89,1c-1.59.67-3,1.79-4.71,2.09-2.55.45-5.26-1-7.69-.14a24.44,24.44,0,0,0-2.61,1.42,8.19,8.19,0,0,1-5.19.53,14.68,14.68,0,0,1-2.6-.78c-.59-.22-1.68-1-2.29-.83C78.09,164.5,80.35,167,82.13,167.55Z" transform="translate(0.5 0.88)"/><path class="cls-10" d="M67.05,140a16.39,16.39,0,0,1,3.24-.68c1.14-.09,2.3,0,3.44-.08s2.37-.56,3.57-.79a23.51,23.51,0,0,1,3.25-.3c2.27-.1,4.54-.21,6.82-.26a26.26,26.26,0,0,0,3.31-.2c1-.16,2.06-.46,3.1-.62a53.09,53.09,0,0,1,6.68-.14c5.57-.13,10.94-2.19,16.51-2.5a11.86,11.86,0,0,1-4.09,1.42c-1.08.17-2.18.19-3.27.3-4.09.43-8,2.25-12.08,2.43-1.9.09-3.8-.18-5.71-.14a35.71,35.71,0,0,0-3.86.35L79,139.92c-5.53.72-11.15,1.8-16.71,2.15C63.18,140.49,65.41,140.42,67.05,140Z" transform="translate(0.5 0.88)"/><path class="cls-10" d="M142.74,142.25a18.42,18.42,0,0,1,2.72-2.5,7.36,7.36,0,0,1,2.75-1.6c1.94-.45,3.85.73,5.5,1.86s3.58,2.29,5.51,1.82a7.46,7.46,0,0,0,1.9-.88l7.44-4.4c.53-.31,1.15-.84.92-1.42.63.11.85,1,.55,1.53a3.2,3.2,0,0,1-1.46,1.17,47.37,47.37,0,0,0-7.15,4.57,8.16,8.16,0,0,1-2.59,1.55,5.36,5.36,0,0,1-3.65-.49c-1.14-.53-2.16-1.27-3.26-1.88a5.29,5.29,0,0,0-2.14-.73c-1.78-.1-3.24,1.31-4.81,2.17a8.6,8.6,0,0,1-2.85.93c-.5.07-1.27-.15-.81-.76.09-.13.48-.07.63-.15A3.53,3.53,0,0,0,142.74,142.25Z" transform="translate(0.5 0.88)"/><path class="cls-3" d="M96.57,238.57a1.53,1.53,0,0,0,.89,1.59,3.58,3.58,0,0,0,1.92.26c2.26-.16,4.61-.88,6.74-.1a24.65,24.65,0,0,1,2.23,1.14c3.11,1.54,6.76,1.14,10.22,1.23a34.16,34.16,0,0,1,12.65,2.78,16.52,16.52,0,0,0,2.69,1c2.64.63,5.53-.39,8.08.57,1,.38,1.89,1.05,2.88,1.51,3.68,1.72,10.19,1.33,10.77-3.82.24-2.06-1.31-4-3.22-4.84a11.57,11.57,0,0,0-6.13-.48c-1.17.16-2.34.37-3.49.64-3.06.71-6.07,1.83-9.22,1.89a27.6,27.6,0,0,1-5.35-.62c-2.34-.42-4.7-.85-7-1.47a25.54,25.54,0,0,0-4-.92" transform="translate(0.5 0.88)"/><path class="cls-10" d="M96.93,238.86a14.64,14.64,0,0,0,5.23.5,14.28,14.28,0,0,1,3.13-.13,13.77,13.77,0,0,1,3.67,1.52,14.28,14.28,0,0,0,6,1.36c1.24,0,2.47-.16,3.7-.19a35.74,35.74,0,0,1,7.63.9,19.93,19.93,0,0,1,3.89,1c1.59.68,3,1.79,4.71,2.09,2.55.45,5.26-1,7.69-.13a24.36,24.36,0,0,1,2.61,1.41,8.19,8.19,0,0,0,5.19.53A14.65,14.65,0,0,0,153,247c.59-.23,1.67-1,2.28-.84,0,2-2.31,4.41-4.09,5-2.6.86-5.29-.73-8-1.18a18.32,18.32,0,0,1-2.78-.46c-1.15-.38-2.14-1.21-3.33-1.43-1-.19-2.08.09-3.07-.17a6.32,6.32,0,0,1-1.43-.64c-6.61-3.5-14.43-3.5-21.9-3.85a4.92,4.92,0,0,1-1.57-.26c-1-.44-1.65-1.56-2.59-2.21a5.18,5.18,0,0,0-3.75-.59c-1.28.2-2.53.62-3.82.73a2.65,2.65,0,0,1-2-.44,1.18,1.18,0,0,1-.08-1.79" transform="translate(0.5 0.88)"/><path class="cls-7" d="M57.89,331.6a134,134,0,0,0,23,35.58,1339.6,1339.6,0,0,0,189.72-53.74A1339.28,1339.28,0,0,0,442.45,236.7c0-3.55,0-7.34-.29-11.34-.26-4.21-.68-8.17-1.19-11.85a736.31,736.31,0,0,1-178.44,84.11A736.19,736.19,0,0,1,57.89,331.6Z" transform="translate(0.5 0.88)"/><path class="cls-7" d="M82.93,368.45" transform="translate(0.5 0.88)"/><path class="cls-8" d="M87.46,375a1227.42,1227.42,0,0,0,191.07-55.78,1227,1227,0,0,0,163.93-77c0-1.81,0-3.63,0-5.44A1339.15,1339.15,0,0,1,275,311.84,1338.51,1338.51,0,0,1,80.9,367.18c.55.79,1.14,1.59,1.78,2.41A55.39,55.39,0,0,0,87.46,375Z" transform="translate(0.5 0.88)"/></g><g id="Capa_11" data-name="Capa 11"><path class="cls-8" d="M101.63,388.08A1458.24,1458.24,0,0,0,275,340.32,1460.61,1460.61,0,0,0,439.1,272.6q-1.28,6-2.68,12.16-1.17,5.08-2.37,10.05l-112.22,60a69.45,69.45,0,0,0-36.15-3.56,65.07,65.07,0,0,0-22.81,8.59A60.91,60.91,0,0,0,250.72,370c-.5.71-2.81,4.19-1.48,6.81a5.1,5.1,0,0,0,3.26,2.37c8.32,2.73,34.2.77,34.75-6.74a3.88,3.88,0,0,0-.38-1.85c-1.85-4.54-9.36-5.94-14.56-5.28a18.76,18.76,0,0,0-8.26,3.21,14.4,14.4,0,0,1,2.17-3.47c5.68-6.68,16-5.91,20.65-5.57s15.27,1.13,17,6.71c.88,2.83-.8,6.06-2,8.43a21,21,0,0,1-5.78,6.77c-3.58,2.94-6.92,4.19-11,5.68a79.11,79.11,0,0,1-12.39,3.22,122.28,122.28,0,0,1-13,2.18,96.93,96.93,0,0,1-16.51.21c-13.86-.82-20.78-1.23-29.11-2.39-11.75-1.62-36,.68-89.29,16.14a125.62,125.62,0,0,1-12.24-8.61A127.84,127.84,0,0,1,101.63,388.08Z" transform="translate(0.5 0.88)"/></g><g id="Capa_10" data-name="Capa 10"><path class="cls-7" d="M101.63,388.08A1691.49,1691.49,0,0,0,277.05,337a1687.92,1687.92,0,0,0,162.43-66.72c-.59,3.82-1.33,7.83-2.25,12-.77,3.54-1.61,6.91-2.49,10.11L323.86,351.47a69.37,69.37,0,0,0-36.15-3.55,65.07,65.07,0,0,0-22.81,8.59,60.57,60.57,0,0,0-12.15,10.08c-.5.71-2.81,4.19-1.48,6.81a5.1,5.1,0,0,0,3.26,2.37c8.32,2.73,34.2.77,34.75-6.74a3.77,3.77,0,0,0-.38-1.85c-2.25-5.4-13.49-7.26-20.74-3.41a15.15,15.15,0,0,0-2.08,1.33c1.52-1.54,10.9-10.81,22.82-9,5.78.86,14.35,4.65,15,10.07a10.53,10.53,0,0,1-.77,4.52c-.38,1.08-1.46,3.73-5.18,7-.87.76-4.11,3.48-10.87,6-3.77,1.43-6.7,2-12.39,3.22a122.28,122.28,0,0,1-13.05,2.18,96.93,96.93,0,0,1-16.51.21c-13.73-.82-20.62-1-29.11-2.39-29.63-4.74-94.25,17.47-94.25,17.47a112.39,112.39,0,0,1-20.13-16.27Z" transform="translate(0.5 0.88)"/></g><g id="Capa_14" data-name="Capa 14"><path class="cls-2" d="M69.44,160.78c17.6,3.38,36,9.59,52.91,3.57,6.68-2.38,12.56-6.55,18.9-9.73,26.24-13.16,57.65-8.48,86.21-1.65,5.32,1.27,11.65,3.66,12.48,9.07,1,6.64-7.1,10.78-13.78,11.49-11.88,1.25-24.16-1.33-35.7,1.77-8.13,2.18-15.24,7-22.49,11.28-23.57,13.88-51.45,22.55-78.36,17.67-5.91-1.07-11.75-2.78-17.76-2.92-8.7-.2-17.08,2.92-25.59,4.79s-18,2.32-25.25-2.57c-13.56-9.23-7.69-25.6,2.5-33.8C37,158.91,52.69,157.57,69.44,160.78Z" transform="translate(0.5 0.88)"/><path class="cls-2" d="M283.07,185.32c12.62-1.72,25.49.24,38.16-1.1,24.1-2.55,45.16-16.58,67-27s48.47-17.32,69.69-5.63a6,6,0,0,1,3.05,2.88c.75,2.07-.74,4.22-2.14,5.92l-21,25.46c-3.84,4.68-7.75,9.41-12.67,12.94-6.8,4.88-15.08,7.15-23.2,9.15-40,9.84-80.94,15.26-121.85,20.11-10.66,1.26-21.43,2.51-31.54,6.1-17.24,6.12-31.42,18.59-47.73,26.87-7.09,3.59-16.61,6-22.25.44-6.47-6.41-1.75-18.18,6-22.91s17.35-5.21,26-8.09A48.49,48.49,0,0,0,237.59,208c-2.61,1.23-5.27,2.64-7.85,3.14C243.18,198.33,264.69,187.83,283.07,185.32Z" transform="translate(0.5 0.88)"/><path class="cls-2" d="M153.07,331.5c9.25,2.43,18.13,7,27.69,7,12.22,0,23.05-7.25,33.41-13.72,17.48-10.92,36.63-20.45,57.21-21.72,5.39-.33,11.82.5,14.39,5.25,2.79,5.17-.87,11.49-5.15,15.5a45.87,45.87,0,0,1-25.38,11.93c-10.13,1.28-22-.31-29.05,7-5.86,6.06-5.7,15.66-9.44,23.22-7.22,14.59-26.94,18-42.88,14.64s-30.81-11.37-47-12.68c-9.54-.77-49.32-2.06-34.46-21.24C104.61,331,135.35,326.85,153.07,331.5Z" transform="translate(0.5 0.88)"/></g></svg>